<svg id="Avence_Logo_-_Solid_Black" data-name="Avence Logo - Solid Black" xmlns="http://www.w3.org/2000/svg" width="65.298" height="51.482" viewBox="0 0 65.298 51.482"> <g id="Group_854" data-name="Group 854" transform="translate(0 8.028)"> <g id="Group_851" data-name="Group 851" transform="translate(0 0.021)"> <path id="Path_1096" data-name="Path 1096" d="M233.162,356.509,228,365.443,226.56,364l-1.209-1.21-.428-.427-.28-.279-7.8-7.8a4.983,4.983,0,1,1,7.048-7.047l1.916,1.916,5.881,5.881Z" transform="translate(-215.386 -345.781)" fill="#fff"/> </g> <g id="Group_852" data-name="Group 852" transform="translate(21.375 19.491)"> <path id="Path_1097" data-name="Path 1097" d="M424.264,524.438l-5.839,5.837-1.916,1.916c-.03.03-.06.058-.091.087l-.059.055-.1.086-.01.01c-.042.037-.086.073-.13.108s-.061.049-.091.072l-.1.076-.1.072-.1.07c-.034.023-.069.045-.1.067s-.081.05-.123.073-.083.048-.124.07l-.108.056c-.046.024-.092.048-.139.07l0,0-.132.06c-.04.018-.081.036-.123.051l-.109.044-.038.015-.1.037c-.052.017-.1.036-.156.052l-.01,0-.03.009-.025.007-.078.023c-.085.023-.17.045-.256.063l-.09.02-.021,0-.03,0c-.057.011-.116.021-.174.03l-.065.01c-.066.009-.132.017-.2.024l-.069.006-.1.008-.1.006-.055,0c-.106,0-.211,0-.315,0l-.108,0-.127-.008-.126-.011a.334.334,0,0,1-.036,0h-.014c-.061-.006-.122-.015-.182-.024l-.1-.015c-.055-.009-.11-.019-.166-.031l-.111-.024c-.052-.013-.1-.024-.155-.038l-.03-.007c-.048-.013-.1-.028-.146-.042l-.142-.046q-.079-.026-.158-.055l-.1-.04c-.031-.013-.063-.025-.094-.039-.048-.02-.1-.04-.145-.062l-.127-.061-.125-.064-.124-.068c-.04-.022-.08-.046-.12-.07l-.006,0c-.075-.046-.148-.093-.22-.142l-.029-.02c-.033-.023-.067-.046-.1-.071s-.065-.048-.1-.073l-.024-.017-.009-.007c-.072-.057-.145-.116-.216-.178l-.125-.112c-.04-.039-.081-.078-.122-.118-.014-.013-.025-.024-.037-.037l-7.7-7.7.26-.451.02-.035,1.639-2.839.021-.034,3.218-5.574,3.715,3.716,1.916,1.916h0l.474.475h0l.47-.472,1.916-1.916L419.1,515.5l3.232,5.6,1.659,2.874h0Z" transform="translate(-401.72 -515.5)" fill="#fff"/> </g> <g id="Group_853" data-name="Group 853" transform="translate(47.517 0)"> <path id="Path_1098" data-name="Path 1098" d="M645.924,354.1l-1.916,1.916-5.822,5.823-.7.7-2.723,2.722-5.159-8.934,1.379-1.38.161-.159,5.836-5.838,1.9-1.9a4.983,4.983,0,0,1,7.048,7.047Z" transform="translate(-629.6 -345.594)" fill="#fff"/> </g> </g> <g id="Group_856" data-name="Group 856" transform="translate(3.694)"> <g id="Group_855" data-name="Group 855" transform="translate(0)"> <path id="Path_1099" data-name="Path 1099" d="M305.5,322.106a4.983,4.983,0,0,1-9.3,2.5l-7.658-13.264h0l-1.3-2.243h0l-3.864-6.691h0l-6.263-10.849-.576-1-.576,1-6.271,10.862h0l-3.849,6.668-.021.034-1.287,2.23,0,0-7.65,13.251a4.983,4.983,0,0,1-8.631-4.983l8.986-15.564h0l5.159-8.934h0l8.176-14.162,1.647-2.853a4.95,4.95,0,0,1,1.831-1.822h0a0,0,0,0,1,0,0,4.921,4.921,0,0,1,.5-.25l.029-.014c.068-.029.135-.055.2-.081.109-.041.218-.08.329-.115.073-.02.147-.04.221-.057s.146-.037.217-.051a.629.629,0,0,1,.076-.014c.04-.008.08-.016.119-.022.1-.018.206-.03.31-.04.04,0,.079-.008.122-.009a4.5,4.5,0,0,1,.724,0c.041,0,.081.006.122.009a3.087,3.087,0,0,1,.309.04c.04.006.08.014.12.022a.67.67,0,0,1,.076.014c.071.014.146.03.217.051s.148.036.221.057c.111.034.22.073.329.115.069.026.137.053.2.081l.029.014a4.684,4.684,0,0,1,.5.25s0,0,0,0h0a4.958,4.958,0,0,1,1.832,1.823l1.647,2.853,8.168,14.149h0l5.158,8.935,8.994,15.578A4.974,4.974,0,0,1,305.5,322.106Z" transform="translate(-247.584 -275.612)" fill="#fff"/> </g> </g> </svg>