<svg xmlns="http://www.w3.org/2000/svg" width="17" height="17" viewBox="0 0 17 17"> <path id="LinkedIn__x28_alt_x29__3_" d="M15.742,0H1.259A1.241,1.241,0,0,0,0,1.219V15.784A1.239,1.239,0,0,0,1.259,17H15.741A1.238,1.238,0,0,0,17,15.784V1.219A1.24,1.24,0,0,0,15.742,0ZM5.155,14.23H2.588V6.556H5.155V14.23ZM3.87,5.509H3.853a1.332,1.332,0,1,1,.033-2.655A1.332,1.332,0,1,1,3.87,5.509Zm10.543,8.72H11.85v-4.1c0-1.031-.377-1.74-1.306-1.74a1.393,1.393,0,0,0-1.314.941,1.7,1.7,0,0,0-.085.618V14.23H6.575s.033-6.955,0-7.673H9.145V7.644a2.543,2.543,0,0,1,2.311-1.269c1.691,0,2.957,1.1,2.957,3.455v4.4ZM9.129,7.669a.048.048,0,0,1,.015-.024v.024Z" transform="translate(0 0)" fill="#838383"/> </svg>