<svg id="grid-world" xmlns="http://www.w3.org/2000/svg" width="21" height="21" viewBox="0 0 21 21">
  <path id="Path_1249" data-name="Path 1249" d="M20.975,9.8A10.5,10.5,0,0,0,11.2.024V0H9.8V.024A10.5,10.5,0,0,0,.024,9.8H0v1.4H.024A10.5,10.5,0,0,0,9.8,20.975V21h1.4v-.025A10.5,10.5,0,0,0,20.975,11.2H21V9.8ZM6.573,2.289A11.131,11.131,0,0,0,4.927,5.6h-2.1A9.148,9.148,0,0,1,6.573,2.289ZM2.1,7H4.558a16.626,16.626,0,0,0-.344,2.8H1.427A9.021,9.021,0,0,1,2.1,7Zm-.671,4.2H4.214A16.626,16.626,0,0,0,4.558,14H2.1A9.021,9.021,0,0,1,1.427,11.2Zm1.4,4.2h2.1a11.1,11.1,0,0,0,1.648,3.311A9.138,9.138,0,0,1,2.829,15.4ZM9.8,19.51c-1.439-.385-2.678-1.931-3.43-4.11H9.8ZM9.8,14H5.977a15.647,15.647,0,0,1-.363-2.8H9.8Zm0-4.2H5.614A15.647,15.647,0,0,1,5.977,7H9.8Zm0-4.2H6.37C7.122,3.42,8.361,1.875,9.8,1.491Zm8.371,0H16.076a11.1,11.1,0,0,0-1.649-3.311A9.157,9.157,0,0,1,18.171,5.6ZM11.2,1.491c1.438.384,2.678,1.929,3.43,4.109H11.2ZM11.2,7h3.822a15.773,15.773,0,0,1,.364,2.8H11.2Zm0,4.2h4.186a15.519,15.519,0,0,1-.364,2.8H11.2Zm0,8.31V15.4h3.43C13.878,17.58,12.638,19.125,11.2,19.51Zm3.227-.8A11.185,11.185,0,0,0,16.076,15.4h2.094A9.147,9.147,0,0,1,14.427,18.711ZM18.9,14H16.442a16.626,16.626,0,0,0,.344-2.8h2.786A8.981,8.981,0,0,1,18.9,14ZM16.786,9.8A16.626,16.626,0,0,0,16.442,7H18.9a9.021,9.021,0,0,1,.671,2.8Z" fill="#fff"/>
</svg>
